<svg width="55" height="54" viewBox="0 0 55 54" fill="none" xmlns="http://www.w3.org/2000/svg">
    <path
        d="M27.0981 18.4041C31.9702 18.4041 35.1288 20.6816 36.8334 23.6063C38.3506 26.2095 38.5211 29.9679 38.5346 31.0858C38.567 33.7793 36.3418 35.5965 34.06 35.5965H20.1371C17.8554 35.5965 15.6301 33.7793 15.6625 31.0858C15.676 29.9679 15.8465 26.2095 17.3637 23.6063C19.0683 20.6816 22.2261 18.4042 27.0981 18.4041ZM27.0981 22.4041C20.2491 22.4043 19.6834 29.4043 19.6625 31.1346C19.6596 31.3969 19.8747 31.5965 20.1371 31.5965H34.06C34.3224 31.5965 34.5376 31.3969 34.5346 31.1346C34.5138 29.4043 33.9474 22.4041 27.0981 22.4041Z"
        fill="#4C2E24" />
</svg>