<svg width="55" height="54" viewBox="0 0 55 54" fill="none" xmlns="http://www.w3.org/2000/svg">
    <path d="M33.56 25.8383L34.56 24.5716H19.6371L20.6371 25.8383H33.56Z" fill="#4C2E24" />
    <path fill-rule="evenodd" clip-rule="evenodd"
        d="M20.6371 31.804C20.6371 32.3217 21.0305 32.7478 21.5346 32.7991L21.6371 32.804H32.56C33.1123 32.804 33.56 32.3563 33.56 31.804V25.8383L34.56 24.5716V22.1966C34.56 21.6443 34.1123 21.1966 33.56 21.1966H20.6371L20.5346 21.2015C20.0305 21.2528 19.6371 21.6789 19.6371 22.1966V24.5716L20.6371 25.8383V31.804ZM33.56 17.1966C36.3214 17.1966 38.56 19.4352 38.56 22.1966V24.8383C38.56 25.3906 38.1123 25.8383 37.56 25.8383V25.8383V31.804C37.56 34.5654 35.3214 36.804 32.56 36.804H21.6371C18.8757 36.804 16.6371 34.5654 16.6371 31.804V25.8383V25.8383C16.0849 25.8383 15.6371 25.3906 15.6371 24.8383V22.1966C15.6371 19.4352 17.8757 17.1966 20.6371 17.1966H33.56Z"
        fill="#4C2E24" />
</svg>