<svg width="55" height="54" viewBox="0 0 55 54" fill="none" xmlns="http://www.w3.org/2000/svg">
    <path fill-rule="evenodd" clip-rule="evenodd"
        d="M34.5644 36.7977H19.6328C17.4236 36.7977 15.6328 35.0068 15.6328 32.7977V21.2029C15.6328 18.9938 17.4236 17.2029 19.6328 17.2029H34.5644C36.7735 17.2029 38.5644 18.9938 38.5644 21.2029V32.7977C38.5644 35.0068 36.7735 36.7977 34.5644 36.7977ZM22.4609 32.7977L28.3901 26.8685C28.7101 26.5485 29.2051 26.4832 29.597 26.7094L31.2583 27.6681C31.6503 27.8943 32.1453 27.8291 32.4653 27.5091L37.2715 22.7029C37.459 22.5153 37.5644 22.261 37.5644 21.9958V19.1677C37.5644 18.2768 36.4873 17.8307 35.8573 18.4606L31.8071 22.5101C31.4871 22.8301 30.9921 22.8953 30.6002 22.6691L28.9388 21.7104C28.5469 21.4842 28.0519 21.5494 27.7319 21.8694L19.6328 29.9686V19.4606C19.6328 18.9083 20.0805 18.4606 20.6328 18.4606H35.8573C36.4873 17.8307 37.5644 18.2768 37.5644 19.1677V21.9958V31.7977C37.5644 32.35 37.1167 32.7977 36.5644 32.7977H22.4609Z"
        fill="#4C2E24" />
</svg>