<svg width="55" height="54" viewBox="0 0 55 54" fill="none" xmlns="http://www.w3.org/2000/svg">
    <path
        d="M22.3631 34.2629C22.3631 34.8151 22.811 35.2627 23.3631 35.2629H32.8055C33.3578 35.2629 33.8055 34.8152 33.8055 34.2629V25.4494V24.4494V21.4426C33.8055 19.1285 33.6778 18.804 32.7167 18.759L32.2518 18.7522C29.2915 18.7521 24.0991 18.7202 21.7235 18.7522C20.1052 18.7758 19.8289 24.2736 21.6356 24.4455L21.7235 24.4494H21.9833C22.5352 24.4496 22.3632 24.8973 22.3631 25.4494V34.2629ZM37.8055 34.2629C37.8055 37.025 35.5663 39.2629 32.8055 39.2629H23.3631C20.6019 39.2627 18.3631 37.0242 18.3631 34.2629V27.1086C17.6405 26.4158 17.2046 25.6082 16.9872 25.0764C16.4921 23.8654 16.3707 22.5599 16.3944 21.5188C16.4184 20.463 16.6016 19.2231 17.076 18.0979C17.408 17.3107 18.6749 14.7958 21.6649 14.7522H21.6698C24.0801 14.7197 29.348 14.7521 32.2518 14.7522C32.4724 14.7522 33.2124 14.7358 33.9276 14.8908C34.9164 15.1052 36.1221 15.6828 36.9354 16.9768C37.559 17.9689 37.6878 19.0041 37.7381 19.5119C37.7971 20.1067 37.8055 20.7845 37.8055 21.4426V34.2629Z"
        fill="#4C2E24" />
    <path
        d="M21.9833 24.4494C22.5352 24.4496 22.3632 24.8973 22.3631 25.4494H33.8055V24.4494H21.9833Z"
        fill="#4C2E24" />
</svg>