<svg width="600" height="600" viewBox="0 0 600 600" fill="none">
<path d="M103.138 423.001C116.702 455.418 136.159 484.757 160.169 509.679C211.754 505.735 248.081 497.255 240.91 486.729C225.054 463.456 163.947 437.467 103.138 423.001Z" fill="#4C2E24"/>
<path d="M537.338 328.312C537.338 238.958 464.902 166.522 375.548 166.522C286.194 166.522 213.758 238.958 213.758 328.312C213.758 417.666 286.194 490.101 375.548 490.101C464.902 490.101 537.338 417.666 537.338 328.312Z" fill="#DA834D"/>
<path d="M163.406 425.716C163.406 425.716 181.141 417.166 196.266 412.508C228.223 402.667 259.172 449.163 292.34 444.925C311.699 442.452 319.222 438.188 328.009 420.762C339.564 397.847 316.517 357.93 292.34 348.85C262.276 337.559 234.212 348.306 215.251 322.386C204.166 307.234 199.842 288.417 204.722 270.287C212.797 240.291 233.691 212.952 243.475 202.72C325.062 117.397 430.778 164.023 430.778 164.023C430.778 164.023 389.304 124.643 357.705 112.867C344.227 107.844 332.15 104.709 320.247 103.274C314.366 102.565 308.527 102.271 302.583 102.368C292.416 102.535 281.94 103.849 270.415 106.196C266.17 101.473 259.017 95.6898 249.111 90.3212C201.562 90.3212 168.014 118.994 128.002 159.394C98.5792 203.857 81.4464 257.165 81.4464 314.474C81.4464 344.711 86.216 373.835 95.0438 401.133C136.49 411.395 163.406 425.716 163.406 425.716Z" fill="#FFDEC9"/>
<path d="M392.851 279.191C392.851 299.533 409.342 316.024 429.685 316.024C450.027 316.024 466.518 299.533 466.518 279.191C466.518 258.848 450.027 242.357 429.685 242.357C409.342 242.357 392.851 258.848 392.851 279.191Z" fill="#4C2E24"/>
<path d="M429.685 407.766C429.685 395.334 439.762 385.257 452.194 385.257C464.625 385.257 474.703 395.334 474.703 407.766C474.703 420.197 464.625 430.275 452.194 430.275C439.762 430.275 429.685 420.197 429.685 407.766Z" fill="#4C2E24"/>
<path d="M376.822 411.517C365.426 411.517 356.188 420.755 356.188 432.151C356.188 443.546 365.426 452.784 376.822 452.784C388.217 452.784 397.455 443.546 397.455 432.151C397.455 420.755 388.217 411.517 376.822 411.517Z" fill="#4C2E24"/>
<path d="M306.395 317.9C322.5 317.9 335.555 304.844 335.555 288.74C335.555 272.635 322.5 259.58 306.395 259.58C290.291 259.58 277.236 272.635 277.236 288.74C277.236 304.844 290.291 317.9 306.395 317.9Z" fill="#4C2E24"/>
</svg>
