<svg width="18" height="21" viewBox="0 0 18 21" fill="none" xmlns="http://www.w3.org/2000/svg">
<path d="M11 20V16C11 15.4477 10.5523 15 10 15H8C7.44772 15 7 15.4477 7 16V20H9H11Z" fill="black"/>
<path d="M11 20H15.5C16.0523 20 16.5 19.5523 16.5 19V2C16.5 1.44772 16.0523 1 15.5 1H2C1.44772 1 1 1.44771 1 2V19C1 19.5523 1.44772 20 2 20H7M11 20V16C11 15.4477 10.5523 15 10 15H8C7.44772 15 7 15.4477 7 16V20M11 20H9H7" stroke="black" stroke-width="2"/>
<path d="M11 20H15.5C16.0523 20 16.5 19.5523 16.5 19V2C16.5 1.44772 16.0523 1 15.5 1H2C1.44772 1 1 1.44771 1 2V19C1 19.5523 1.44772 20 2 20H7M11 20V16C11 15.4477 10.5523 15 10 15H8C7.44772 15 7 15.4477 7 16V20M11 20H9H7" stroke="black" stroke-opacity="0.2" stroke-width="2"/>
<path d="M6 4H5C4.44772 4 4 4.44772 4 5V6C4 6.55228 4.44772 7 5 7H6C6.55228 7 7 6.55228 7 6V5C7 4.44772 6.55228 4 6 4Z" fill="black"/>
<path d="M13 4H12C11.4477 4 11 4.44772 11 5V6C11 6.55228 11.4477 7 12 7H13C13.5523 7 14 6.55228 14 6V5C14 4.44772 13.5523 4 13 4Z" fill="black"/>
<path d="M13 10H12C11.4477 10 11 10.4477 11 11V12C11 12.5523 11.4477 13 12 13H13C13.5523 13 14 12.5523 14 12V11C14 10.4477 13.5523 10 13 10Z" fill="black"/>
<path d="M6 10H5C4.44772 10 4 10.4477 4 11V12C4 12.5523 4.44772 13 5 13H6C6.55228 13 7 12.5523 7 12V11C7 10.4477 6.55228 10 6 10Z" fill="black"/>
</svg>
